<svg viewBox="0 0 919 70" xmlns="http://www.w3.org/2000/svg" xmlns:xlink="http://www.w3.org/1999/xlink" width="919.000000" height="70.000000" fill="none" customFrame="#000000">
	<defs>
		<clipPath id="clipPath_0">
			<rect width="70.000000" height="70.000000" x="0.000000" y="0.000000" rx="35.000000" fill="rgb(255,255,255)" />
		</clipPath>
		<clipPath id="clipPath_1">
			<rect width="95.828125" height="24.000000" x="773.171875" y="23.000000" fill="rgb(255,255,255)" />
		</clipPath>
		<clipPath id="clipPath_2">
			<rect width="574.171875" height="2.000000" x="189.000000" y="34.000000" fill="rgb(255,255,255)" />
		</clipPath>
		<clipPath id="clipPath_3">
			<rect width="50.000000" height="50.000000" x="869.000000" y="10.000000" fill="rgb(255,255,255)" />
		</clipPath>
		<clipPath id="clipPath_4">
			<rect width="22.453125" height="30.000000" x="0.000000" y="0.000000" fill="rgb(255,255,255)" transform="matrix(1,0,0,-1,882.766,50)" />
		</clipPath>
		<clipPath id="clipPath_5">
			<rect width="46.000000" height="50.000000" x="82.000000" y="10.000000" fill="rgb(255,255,255)" />
		</clipPath>
		<clipPath id="clipPath_6">
			<rect width="46.000000" height="50.000000" x="128.000000" y="10.000000" fill="rgb(255,255,255)" />
		</clipPath>
	</defs>
	<rect id="div.mejs-controls" width="919.000000" height="70.000000" x="0.000000" y="0.000000" />
	<g id="Play" clip-path="url(#clipPath_0)" customFrame="url(#clipPath_0)">
		<rect id="Play" width="68.000000" height="68.000000" x="1.000000" y="1.000000" rx="34.000000" stroke="rgb(206,206,206)" stroke-width="2" />
	</g>
	<g id="div.mejs-time" clip-path="url(#clipPath_1)" customFrame="url(#clipPath_1)">
		<rect id="div.mejs-time" width="95.828125" height="24.000000" x="773.171875" y="23.000000" />
		<path id="00:00 / 00:00" d="M786.534 34.4204C786.534 35.2316 786.473 35.9562 786.35 36.5942C786.227 37.2323 786.033 37.7723 785.769 38.2144C785.504 38.6564 785.162 38.9937 784.743 39.2261C784.324 39.4539 783.82 39.5679 783.232 39.5679C782.49 39.5679 781.874 39.3651 781.387 38.9595C780.904 38.5539 780.541 37.9683 780.3 37.2026C780.063 36.4325 779.944 35.505 779.944 34.4204C779.944 33.354 780.051 32.438 780.266 31.6724C780.484 30.9022 780.835 30.312 781.318 29.9019C781.801 29.4871 782.439 29.2798 783.232 29.2798C783.984 29.2798 784.604 29.4849 785.092 29.895C785.579 30.3006 785.942 30.8885 786.179 31.6587C786.416 32.4243 786.534 33.3449 786.534 34.4204ZM781.086 34.4204C781.086 35.3501 781.157 36.1248 781.298 36.7446C781.439 37.3644 781.667 37.8293 781.981 38.1392C782.3 38.4445 782.717 38.5972 783.232 38.5972C783.747 38.5972 784.162 38.4445 784.477 38.1392C784.796 37.8338 785.026 37.3713 785.167 36.7515C785.313 36.1317 785.386 35.3547 785.386 34.4204C785.386 33.5044 785.315 32.7388 785.174 32.1235C785.033 31.5037 784.805 31.0389 784.49 30.729C784.176 30.4146 783.757 30.2573 783.232 30.2573C782.708 30.2573 782.289 30.4146 781.975 30.729C781.66 31.0389 781.432 31.5037 781.291 32.1235C781.154 32.7388 781.086 33.5044 781.086 34.4204ZM794.546 34.4204C794.546 35.2316 794.484 35.9562 794.361 36.5942C794.238 37.2323 794.045 37.7723 793.78 38.2144C793.516 38.6564 793.174 38.9937 792.755 39.2261C792.336 39.4539 791.832 39.5679 791.244 39.5679C790.501 39.5679 789.886 39.3651 789.398 38.9595C788.915 38.5539 788.553 37.9683 788.312 37.2026C788.075 36.4325 787.956 35.505 787.956 34.4204C787.956 33.354 788.063 32.438 788.277 31.6724C788.496 30.9022 788.847 30.312 789.33 29.9019C789.813 29.4871 790.451 29.2798 791.244 29.2798C791.996 29.2798 792.616 29.4849 793.104 29.895C793.591 30.3006 793.953 30.8885 794.19 31.6587C794.427 32.4243 794.546 33.3449 794.546 34.4204ZM789.098 34.4204C789.098 35.3501 789.168 36.1248 789.31 36.7446C789.451 37.3644 789.679 37.8293 789.993 38.1392C790.312 38.4445 790.729 38.5972 791.244 38.5972C791.759 38.5972 792.174 38.4445 792.488 38.1392C792.807 37.8338 793.037 37.3713 793.179 36.7515C793.325 36.1317 793.397 35.3547 793.397 34.4204C793.397 33.5044 793.327 32.7388 793.186 32.1235C793.044 31.5037 792.816 31.0389 792.502 30.729C792.188 30.4146 791.768 30.2573 791.244 30.2573C790.72 30.2573 790.301 30.4146 789.986 30.729C789.672 31.0389 789.444 31.5037 789.303 32.1235C789.166 32.7388 789.098 33.5044 789.098 34.4204ZM796.289 38.7202C796.289 38.4012 796.367 38.1756 796.521 38.0435C796.676 37.9067 796.866 37.8384 797.089 37.8384C797.321 37.8384 797.517 37.9067 797.677 38.0435C797.836 38.1756 797.916 38.4012 797.916 38.7202C797.916 39.0347 797.836 39.2648 797.677 39.4106C797.517 39.5519 797.321 39.6226 797.089 39.6226C796.866 39.6226 796.676 39.5519 796.521 39.4106C796.367 39.2648 796.289 39.0347 796.289 38.7202ZM796.289 32.6567C796.289 32.3286 796.367 32.0985 796.521 31.9663C796.676 31.8296 796.866 31.7612 797.089 31.7612C797.321 31.7612 797.517 31.8296 797.677 31.9663C797.836 32.0985 797.916 32.3286 797.916 32.6567C797.916 32.9666 797.836 33.1922 797.677 33.3335C797.517 33.4748 797.321 33.5454 797.089 33.5454C796.866 33.5454 796.676 33.4748 796.521 33.3335C796.367 33.1922 796.289 32.9666 796.289 32.6567ZM806.235 34.4204C806.235 35.2316 806.174 35.9562 806.051 36.5942C805.928 37.2323 805.734 37.7723 805.47 38.2144C805.205 38.6564 804.864 38.9937 804.444 39.2261C804.025 39.4539 803.521 39.5679 802.934 39.5679C802.191 39.5679 801.576 39.3651 801.088 38.9595C800.605 38.5539 800.242 37.9683 800.001 37.2026C799.764 36.4325 799.646 35.505 799.646 34.4204C799.646 33.354 799.753 32.438 799.967 31.6724C800.186 30.9022 800.536 30.312 801.02 29.9019C801.503 29.4871 802.141 29.2798 802.934 29.2798C803.686 29.2798 804.305 29.4849 804.793 29.895C805.281 30.3006 805.643 30.8885 805.88 31.6587C806.117 32.4243 806.235 33.3449 806.235 34.4204ZM800.787 34.4204C800.787 35.3501 800.858 36.1248 800.999 36.7446C801.14 37.3644 801.368 37.8293 801.683 38.1392C802.002 38.4445 802.419 38.5972 802.934 38.5972C803.449 38.5972 803.863 38.4445 804.178 38.1392C804.497 37.8338 804.727 37.3713 804.868 36.7515C805.014 36.1317 805.087 35.3547 805.087 34.4204C805.087 33.5044 805.016 32.7388 804.875 32.1235C804.734 31.5037 804.506 31.0389 804.191 30.729C803.877 30.4146 803.458 30.2573 802.934 30.2573C802.409 30.2573 801.99 30.4146 801.676 30.729C801.361 31.0389 801.133 31.5037 800.992 32.1235C800.855 32.7388 800.787 33.5044 800.787 34.4204ZM814.247 34.4204C814.247 35.2316 814.186 35.9562 814.062 36.5942C813.939 37.2323 813.746 37.7723 813.481 38.2144C813.217 38.6564 812.875 38.9937 812.456 39.2261C812.037 39.4539 811.533 39.5679 810.945 39.5679C810.202 39.5679 809.587 39.3651 809.1 38.9595C808.617 38.5539 808.254 37.9683 808.013 37.2026C807.776 36.4325 807.657 35.505 807.657 34.4204C807.657 33.354 807.764 32.438 807.979 31.6724C808.197 30.9022 808.548 30.312 809.031 29.9019C809.514 29.4871 810.152 29.2798 810.945 29.2798C811.697 29.2798 812.317 29.4849 812.805 29.895C813.292 30.3006 813.655 30.8885 813.892 31.6587C814.129 32.4243 814.247 33.3449 814.247 34.4204ZM808.799 34.4204C808.799 35.3501 808.869 36.1248 809.011 36.7446C809.152 37.3644 809.38 37.8293 809.694 38.1392C810.013 38.4445 810.43 38.5972 810.945 38.5972C811.46 38.5972 811.875 38.4445 812.189 38.1392C812.508 37.8338 812.739 37.3713 812.88 36.7515C813.026 36.1317 813.099 35.3547 813.099 34.4204C813.099 33.5044 813.028 32.7388 812.887 32.1235C812.745 31.5037 812.518 31.0389 812.203 30.729C811.889 30.4146 811.469 30.2573 810.945 30.2573C810.421 30.2573 810.002 30.4146 809.688 30.729C809.373 31.0389 809.145 31.5037 809.004 32.1235C808.867 32.7388 808.799 33.5044 808.799 34.4204ZM823.585 29.437L819.866 39.4312L818.745 39.4312L822.471 29.437L823.585 29.437ZM834.673 34.4204C834.673 35.2316 834.611 35.9562 834.488 36.5942C834.365 37.2323 834.172 37.7723 833.907 38.2144C833.643 38.6564 833.301 38.9937 832.882 39.2261C832.463 39.4539 831.959 39.5679 831.371 39.5679C830.628 39.5679 830.013 39.3651 829.525 38.9595C829.042 38.5539 828.68 37.9683 828.438 37.2026C828.201 36.4325 828.083 35.505 828.083 34.4204C828.083 33.354 828.19 32.438 828.404 31.6724C828.623 30.9022 828.974 30.312 829.457 29.9019C829.94 29.4871 830.578 29.2798 831.371 29.2798C832.123 29.2798 832.743 29.4849 833.23 29.895C833.718 30.3006 834.08 30.8885 834.317 31.6587C834.554 32.4243 834.673 33.3449 834.673 34.4204ZM829.225 34.4204C829.225 35.3501 829.295 36.1248 829.437 36.7446C829.578 37.3644 829.806 37.8293 830.12 38.1392C830.439 38.4445 830.856 38.5972 831.371 38.5972C831.886 38.5972 832.301 38.4445 832.615 38.1392C832.934 37.8338 833.164 37.3713 833.306 36.7515C833.451 36.1317 833.524 35.3547 833.524 34.4204C833.524 33.5044 833.454 32.7388 833.312 32.1235C833.171 31.5037 832.943 31.0389 832.629 30.729C832.314 30.4146 831.895 30.2573 831.371 30.2573C830.847 30.2573 830.428 30.4146 830.113 30.729C829.799 31.0389 829.571 31.5037 829.43 32.1235C829.293 32.7388 829.225 33.5044 829.225 34.4204ZM842.685 34.4204C842.685 35.2316 842.623 35.9562 842.5 36.5942C842.377 37.2323 842.183 37.7723 841.919 38.2144C841.655 38.6564 841.313 38.9937 840.894 39.2261C840.474 39.4539 839.971 39.5679 839.383 39.5679C838.64 39.5679 838.025 39.3651 837.537 38.9595C837.054 38.5539 836.692 37.9683 836.45 37.2026C836.213 36.4325 836.095 35.505 836.095 34.4204C836.095 33.354 836.202 32.438 836.416 31.6724C836.635 30.9022 836.986 30.312 837.469 29.9019C837.952 29.4871 838.59 29.2798 839.383 29.2798C840.135 29.2798 840.755 29.4849 841.242 29.895C841.73 30.3006 842.092 30.8885 842.329 31.6587C842.566 32.4243 842.685 33.3449 842.685 34.4204ZM837.236 34.4204C837.236 35.3501 837.307 36.1248 837.448 36.7446C837.59 37.3644 837.817 37.8293 838.132 38.1392C838.451 38.4445 838.868 38.5972 839.383 38.5972C839.898 38.5972 840.312 38.4445 840.627 38.1392C840.946 37.8338 841.176 37.3713 841.317 36.7515C841.463 36.1317 841.536 35.3547 841.536 34.4204C841.536 33.5044 841.466 32.7388 841.324 32.1235C841.183 31.5037 840.955 31.0389 840.641 30.729C840.326 30.4146 839.907 30.2573 839.383 30.2573C838.859 30.2573 838.439 30.4146 838.125 30.729C837.811 31.0389 837.583 31.5037 837.441 32.1235C837.305 32.7388 837.236 33.5044 837.236 34.4204ZM844.428 38.7202C844.428 38.4012 844.505 38.1756 844.66 38.0435C844.815 37.9067 845.004 37.8384 845.228 37.8384C845.46 37.8384 845.656 37.9067 845.815 38.0435C845.975 38.1756 846.055 38.4012 846.055 38.7202C846.055 39.0347 845.975 39.2648 845.815 39.4106C845.656 39.5519 845.46 39.6226 845.228 39.6226C845.004 39.6226 844.815 39.5519 844.66 39.4106C844.505 39.2648 844.428 39.0347 844.428 38.7202ZM844.428 32.6567C844.428 32.3286 844.505 32.0985 844.66 31.9663C844.815 31.8296 845.004 31.7612 845.228 31.7612C845.46 31.7612 845.656 31.8296 845.815 31.9663C845.975 32.0985 846.055 32.3286 846.055 32.6567C846.055 32.9666 845.975 33.1922 845.815 33.3335C845.656 33.4748 845.46 33.5454 845.228 33.5454C845.004 33.5454 844.815 33.4748 844.66 33.3335C844.505 33.1922 844.428 32.9666 844.428 32.6567ZM854.374 34.4204C854.374 35.2316 854.312 35.9562 854.189 36.5942C854.066 37.2323 853.873 37.7723 853.608 38.2144C853.344 38.6564 853.002 38.9937 852.583 39.2261C852.164 39.4539 851.66 39.5679 851.072 39.5679C850.329 39.5679 849.714 39.3651 849.227 38.9595C848.743 38.5539 848.381 37.9683 848.14 37.2026C847.903 36.4325 847.784 35.505 847.784 34.4204C847.784 33.354 847.891 32.438 848.105 31.6724C848.324 30.9022 848.675 30.312 849.158 29.9019C849.641 29.4871 850.279 29.2798 851.072 29.2798C851.824 29.2798 852.444 29.4849 852.932 29.895C853.419 30.3006 853.782 30.8885 854.019 31.6587C854.256 32.4243 854.374 33.3449 854.374 34.4204ZM848.926 34.4204C848.926 35.3501 848.996 36.1248 849.138 36.7446C849.279 37.3644 849.507 37.8293 849.821 38.1392C850.14 38.4445 850.557 38.5972 851.072 38.5972C851.587 38.5972 852.002 38.4445 852.316 38.1392C852.635 37.8338 852.866 37.3713 853.007 36.7515C853.153 36.1317 853.226 35.3547 853.226 34.4204C853.226 33.5044 853.155 32.7388 853.014 32.1235C852.872 31.5037 852.645 31.0389 852.33 30.729C852.016 30.4146 851.596 30.2573 851.072 30.2573C850.548 30.2573 850.129 30.4146 849.814 30.729C849.5 31.0389 849.272 31.5037 849.131 32.1235C848.994 32.7388 848.926 33.5044 848.926 34.4204ZM862.386 34.4204C862.386 35.2316 862.324 35.9562 862.201 36.5942C862.078 37.2323 861.884 37.7723 861.62 38.2144C861.356 38.6564 861.014 38.9937 860.595 39.2261C860.175 39.4539 859.672 39.5679 859.084 39.5679C858.341 39.5679 857.726 39.3651 857.238 38.9595C856.755 38.5539 856.393 37.9683 856.151 37.2026C855.914 36.4325 855.796 35.505 855.796 34.4204C855.796 33.354 855.903 32.438 856.117 31.6724C856.336 30.9022 856.687 30.312 857.17 29.9019C857.653 29.4871 858.291 29.2798 859.084 29.2798C859.836 29.2798 860.456 29.4849 860.943 29.895C861.431 30.3006 861.793 30.8885 862.03 31.6587C862.267 32.4243 862.386 33.3449 862.386 34.4204ZM856.938 34.4204C856.938 35.3501 857.008 36.1248 857.149 36.7446C857.291 37.3644 857.519 37.8293 857.833 38.1392C858.152 38.4445 858.569 38.5972 859.084 38.5972C859.599 38.5972 860.014 38.4445 860.328 38.1392C860.647 37.8338 860.877 37.3713 861.019 36.7515C861.164 36.1317 861.237 35.3547 861.237 34.4204C861.237 33.5044 861.167 32.7388 861.025 32.1235C860.884 31.5037 860.656 31.0389 860.342 30.729C860.027 30.4146 859.608 30.2573 859.084 30.2573C858.56 30.2573 858.141 30.4146 857.826 30.729C857.512 31.0389 857.284 31.5037 857.143 32.1235C857.006 32.7388 856.938 33.5044 856.938 34.4204Z" fill="rgb(142,139,140)" fill-rule="nonzero" />
	</g>
	<g id="Time Slider" customFrame="url(#clipPath_2)">
		<rect id="Time Slider" width="574.171875" height="2.000000" x="189.000000" y="34.000000" fill="rgb(0,0,0)" />
		<rect id="span.mejs-time-handle-content" width="12.000000" height="12.000000" x="186.000000" y="29.000000" rx="6.000000" fill="rgb(255,255,255)" fill-opacity="0.899999976" />
		<rect id="span.mejs-time-handle-content" width="6.000000" height="6.000000" x="189.000000" y="32.000000" rx="3.000000" stroke="rgb(0,0,0)" stroke-opacity="0.899999976" stroke-width="6" />
	</g>
	<g id="Mute" clip-path="url(#clipPath_3)" customFrame="url(#clipPath_3)">
		<rect id="Mute" width="50.000000" height="50.000000" x="869.000000" y="10.000000" />
		<g id="Frame" clip-path="url(#clipPath_4)" customFrame="url(#clipPath_4)">
			<rect id="Frame" width="22.453125" height="30.000000" x="0.000000" y="0.000000" transform="matrix(1,0,0,-1,882.766,50)" />
			<g id="Group">
				<path id="Vector" d="M8.81323 15.7588C9.16342 15.6031 9.33852 15.3307 9.33852 14.9416L9.33852 3.73541C9.33852 3.3463 9.16342 3.07393 8.81323 2.91829C8.65759 2.84047 8.5214 2.80156 8.40467 2.80156C8.24903 2.80156 8.05447 2.87938 7.82101 3.03502L4.02724 6.07004L0.933852 6.07004C0.311284 6.07004 0 6.38132 0 7.00389L0 11.6732C0 12.2957 0.311284 12.607 0.933852 12.607L4.02724 12.607L7.82101 15.7004C7.97665 15.8171 8.17121 15.8755 8.40467 15.8755C8.5214 15.8755 8.65759 15.8366 8.81323 15.7588ZM22.3541 9.33852C22.3541 5.79767 21.0895 2.76265 18.5603 0.233463C18.4047 0.077821 18.2296 0 18.035 0C17.8794 0 17.7237 0.077821 17.5681 0.233463C17.2179 0.544747 17.2179 0.875486 17.5681 1.22568C19.8249 3.40467 20.9533 6.10895 20.9533 9.33852C20.9533 12.5681 19.8249 15.2724 17.5681 17.4514C17.2179 17.8016 17.2179 18.1323 17.5681 18.4436C17.9183 18.7549 18.249 18.7549 18.5603 18.4436C21.0895 15.9144 22.3541 12.8794 22.3541 9.33852ZM15.9922 16.0506C17.7821 14.1829 18.677 11.9455 18.677 9.33852C18.677 6.73152 17.7821 4.49416 15.9922 2.62646C15.8366 2.47082 15.6615 2.393 15.4669 2.393C15.3113 2.393 15.1556 2.47082 15 2.62646C14.6498 2.97665 14.6304 3.30739 14.9416 3.61868C16.4981 5.1751 17.2763 7.08171 17.2763 9.33852C17.2763 11.5953 16.4981 13.5019 14.9416 15.0584C14.6304 15.3696 14.6498 15.7004 15 16.0506C15.3502 16.4008 15.6809 16.4008 15.9922 16.0506ZM13.0156 13.6576C14.1829 12.4125 14.7665 10.9728 14.7665 9.33852C14.7665 7.70428 14.1829 6.26459 13.0156 5.01945C12.8988 4.90272 12.7237 4.84436 12.4903 4.84436C12.2957 4.84436 12.1401 4.90272 12.0233 5.01945C11.7121 5.33074 11.7121 5.66148 12.0233 6.01167C12.9183 6.90661 13.3658 8.01556 13.3658 9.33852C13.3658 10.6615 12.9183 11.7704 12.0233 12.6654C11.7121 13.0156 11.7121 13.3463 12.0233 13.6576C12.3346 13.9689 12.6654 13.9689 13.0156 13.6576Z" fill="rgb(0,0,0)" fill-rule="nonzero" transform="matrix(1,0,0,-1,882.815,44.3385)" />
			</g>
		</g>
	</g>
	<g id="Skip back 10 seconds" clip-path="url(#clipPath_5)" customFrame="url(#clipPath_5)">
		<rect id="Skip back 10 seconds" width="46.000000" height="50.000000" x="82.000000" y="10.000000" />
		<path id="10s" d="M99.0761 51.5942L100.282 44.5674C99.7659 45.0667 99.0338 45.4666 98.0858 45.7671L98.2636 44.7261C98.8687 44.4299 99.4739 44.0088 100.079 43.4629C100.54 43.0524 100.87 42.6483 101.069 42.2505L101.621 42.2505L100.022 51.5942L99.0761 51.5942ZM103.189 48.541C103.189 47.3688 103.378 46.2368 103.754 45.145C104.131 44.049 104.586 43.264 105.119 42.79C105.521 42.4303 105.953 42.2505 106.414 42.2505C106.985 42.2505 107.47 42.5107 107.868 43.0312C108.265 43.5475 108.464 44.3114 108.464 45.3228C108.464 46.3215 108.337 47.3096 108.083 48.2871C107.762 49.527 107.309 50.4538 106.725 51.0674C106.289 51.5244 105.79 51.7529 105.227 51.7529C104.668 51.7529 104.188 51.4842 103.786 50.9468C103.388 50.4051 103.189 49.6032 103.189 48.541ZM104.103 48.833C104.103 49.527 104.213 50.0348 104.433 50.3564C104.658 50.6781 104.939 50.8389 105.278 50.8389C105.629 50.8389 105.944 50.659 106.224 50.2993C106.689 49.7069 107.03 48.8521 107.246 47.7349C107.461 46.6177 107.569 45.7248 107.569 45.0562C107.569 44.3833 107.461 43.9009 107.246 43.6089C107.034 43.3169 106.757 43.1709 106.414 43.1709C106.042 43.1709 105.711 43.3486 105.424 43.7041C105.017 44.2119 104.696 45.0392 104.459 46.186C104.222 47.3286 104.103 48.2109 104.103 48.833ZM108.769 49.29L109.715 49.2202C109.711 49.7703 109.831 50.1808 110.077 50.4517C110.322 50.7225 110.656 50.8579 111.079 50.8579C111.465 50.8579 111.769 50.7627 111.994 50.5723C112.218 50.3776 112.33 50.13 112.33 49.8296C112.33 49.6138 112.26 49.4191 112.121 49.2456C111.977 49.0721 111.666 48.8605 111.187 48.6108C110.637 48.3231 110.273 48.103 110.096 47.9507C109.922 47.7941 109.787 47.6058 109.689 47.3857C109.592 47.1615 109.543 46.9118 109.543 46.6367C109.543 46.0739 109.725 45.6105 110.089 45.2466C110.453 44.8826 110.931 44.7007 111.524 44.7007C112.18 44.7007 112.698 44.889 113.079 45.2656C113.46 45.638 113.659 46.1606 113.676 46.8335L112.749 46.9097C112.736 46.4865 112.614 46.1606 112.381 45.9321C112.152 45.7036 111.843 45.5894 111.454 45.5894C111.149 45.5894 110.902 45.6761 110.711 45.8496C110.521 46.0189 110.426 46.2157 110.426 46.4399C110.426 46.6346 110.483 46.8018 110.597 46.9414C110.711 47.0853 111.001 47.2778 111.467 47.519C112.182 47.8957 112.637 48.1961 112.831 48.4204C113.128 48.7716 113.276 49.1991 113.276 49.7026C113.276 50.2612 113.077 50.7415 112.679 51.1436C112.286 51.5456 111.738 51.7466 111.035 51.7466C110.328 51.7466 109.774 51.5435 109.372 51.1372C108.97 50.731 108.769 50.1576 108.769 49.417L108.769 49.29Z" fill="rgb(142,139,140)" fill-rule="nonzero" />
	</g>
	<g id="Jump forward 10 seconds" clip-path="url(#clipPath_6)" customFrame="url(#clipPath_6)">
		<rect id="Jump forward 10 seconds" width="46.000000" height="50.000000" x="128.000000" y="10.000000" />
		<path id="10s" d="M145.076 51.5942L146.282 44.5674C145.766 45.0667 145.034 45.4666 144.086 45.7671L144.264 44.7261C144.869 44.4299 145.474 44.0088 146.079 43.4629C146.54 43.0524 146.87 42.6483 147.069 42.2505L147.621 42.2505L146.022 51.5942L145.076 51.5942ZM149.189 48.541C149.189 47.3688 149.378 46.2368 149.754 45.145C150.131 44.049 150.586 43.264 151.119 42.79C151.521 42.4303 151.953 42.2505 152.414 42.2505C152.985 42.2505 153.47 42.5107 153.868 43.0312C154.265 43.5475 154.464 44.3114 154.464 45.3228C154.464 46.3215 154.337 47.3096 154.083 48.2871C153.762 49.527 153.309 50.4538 152.725 51.0674C152.289 51.5244 151.79 51.7529 151.227 51.7529C150.668 51.7529 150.188 51.4842 149.786 50.9468C149.388 50.4051 149.189 49.6032 149.189 48.541ZM150.103 48.833C150.103 49.527 150.213 50.0348 150.434 50.3564C150.658 50.6781 150.939 50.8389 151.278 50.8389C151.629 50.8389 151.944 50.659 152.224 50.2993C152.689 49.7069 153.03 48.8521 153.246 47.7349C153.461 46.6177 153.569 45.7248 153.569 45.0562C153.569 44.3833 153.461 43.9009 153.246 43.6089C153.034 43.3169 152.757 43.1709 152.414 43.1709C152.042 43.1709 151.711 43.3486 151.424 43.7041C151.017 44.2119 150.696 45.0392 150.459 46.186C150.222 47.3286 150.103 48.2109 150.103 48.833ZM154.769 49.29L155.715 49.2202C155.711 49.7703 155.831 50.1808 156.077 50.4517C156.322 50.7225 156.656 50.8579 157.079 50.8579C157.465 50.8579 157.769 50.7627 157.994 50.5723C158.218 50.3776 158.33 50.13 158.33 49.8296C158.33 49.6138 158.26 49.4191 158.121 49.2456C157.977 49.0721 157.666 48.8605 157.187 48.6108C156.637 48.3231 156.273 48.103 156.096 47.9507C155.922 47.7941 155.787 47.6058 155.689 47.3857C155.592 47.1615 155.543 46.9118 155.543 46.6367C155.543 46.0739 155.725 45.6105 156.089 45.2466C156.453 44.8826 156.931 44.7007 157.524 44.7007C158.18 44.7007 158.698 44.889 159.079 45.2656C159.46 45.638 159.659 46.1606 159.676 46.8335L158.749 46.9097C158.736 46.4865 158.614 46.1606 158.381 45.9321C158.152 45.7036 157.843 45.5894 157.454 45.5894C157.149 45.5894 156.902 45.6761 156.711 45.8496C156.521 46.0189 156.426 46.2157 156.426 46.4399C156.426 46.6346 156.483 46.8018 156.597 46.9414C156.711 47.0853 157.001 47.2778 157.467 47.519C158.182 47.8957 158.637 48.1961 158.831 48.4204C159.128 48.7716 159.276 49.1991 159.276 49.7026C159.276 50.2612 159.077 50.7415 158.679 51.1436C158.286 51.5456 157.738 51.7466 157.035 51.7466C156.328 51.7466 155.774 51.5435 155.372 51.1372C154.97 50.731 154.769 50.1576 154.769 49.417L154.769 49.29Z" fill="rgb(142,139,140)" fill-rule="nonzero" />
	</g>
</svg>
