<svg viewBox="0 0 20 20" xmlns="http://www.w3.org/2000/svg" xmlns:xlink="http://www.w3.org/1999/xlink" width="20.000000" height="20.000000" fill="none">
	<rect id="Frame" width="20.000000" height="20.000000" x="0.000000" y="0.000000" transform="matrix(1,0,0,-1,0,20)" />
	<g id="Group">
		<path id="Vector" d="M9.98051 19.961C15.4924 19.961 19.961 15.4936 19.961 9.98051C19.961 4.46862 15.4924 0 9.98051 0C4.46862 0 0 4.46862 0 9.98051C0 15.4924 4.46862 19.961 9.98051 19.961ZM12.0526 7.71852L7.45653 9.93918C7.45809 9.96686 7.46043 9.99532 7.46043 10.023L12.0515 12.2409C12.361 12.0078 12.7439 11.8682 13.1606 11.8682C14.1786 11.8682 15.0043 12.6928 15.0043 13.7119C15.0043 14.7314 14.1786 15.5559 13.1606 15.5559C12.1439 15.5559 11.3177 14.7298 11.3177 13.7119L11.3177 13.7107L6.76686 11.5127C6.45107 11.7634 6.05302 11.9142 5.6191 11.9142C4.60117 11.9142 3.77505 11.0885 3.77505 10.0702C3.77505 9.05224 4.60117 8.22651 5.6191 8.22651C5.98713 8.22651 6.32904 8.33606 6.61715 8.52203L11.3193 6.24912L11.3193 6.24795C11.3193 5.22846 12.1439 4.4039 13.1618 4.4039C14.1797 4.4039 15.0058 5.22963 15.0058 6.24795C15.0058 7.26706 14.1797 8.09162 13.1618 8.09162C12.745 8.09162 12.361 7.95205 12.0526 7.71852Z" fill="rgb(142,139,140)" fill-rule="nonzero" transform="matrix(1,0,0,-1,0.0195312,19.9609)" />
	</g>
</svg>
