<svg viewBox="0 0 25 25" xmlns="http://www.w3.org/2000/svg" xmlns:xlink="http://www.w3.org/1999/xlink" width="25.000000" height="25.000000" fill="none" customFrame="#000000">
	<defs>
		<clipPath id="clipPath_3">
			<rect width="25.000000" height="5.000000" x="0.000000" y="0.000000" fill="rgb(255,255,255)" />
		</clipPath>
		<clipPath id="clipPath_4">
			<rect width="25.000000" height="5.000000" x="0.000000" y="10.000000" fill="rgb(255,255,255)" />
		</clipPath>
		<clipPath id="clipPath_5">
			<rect width="25.000000" height="5.000000" x="0.000000" y="20.000000" fill="rgb(255,255,255)" />
		</clipPath>
	</defs>
	<rect id="span.qodef-m-lines" width="25.000000" height="25.000000" x="0.000000" y="0.000000" />
	<g id="span.qodef-m-line" customFrame="url(#clipPath_3)">
		<rect id="span.qodef-m-line" width="25.000000" height="5.000000" x="0.000000" y="0.000000" />
		<rect id="span.qodef-m-dot" width="5.000000" height="5.000000" x="0.000000" y="0.000000" rx="2.500000" fill="rgb(0,0,0)" />
		<rect id="span.qodef-m-dot" width="5.000000" height="5.000000" x="10.000000" y="0.000000" rx="2.500000" fill="rgb(0,0,0)" />
		<rect id="span.qodef-m-dot" width="5.000000" height="5.000000" x="20.000000" y="0.000000" rx="2.500000" fill="rgb(0,0,0)" />
	</g>
	<g id="span.qodef-m-line" customFrame="url(#clipPath_4)">
		<rect id="span.qodef-m-line" width="25.000000" height="5.000000" x="0.000000" y="10.000000" />
		<rect id="span.qodef-m-dot" width="5.000000" height="5.000000" x="0.000000" y="10.000000" rx="2.500000" fill="rgb(0,0,0)" />
		<rect id="span.qodef-m-dot" width="5.000000" height="5.000000" x="10.000000" y="10.000000" rx="2.500000" fill="rgb(0,0,0)" />
		<rect id="span.qodef-m-dot" width="5.000000" height="5.000000" x="20.000000" y="10.000000" rx="2.500000" fill="rgb(0,0,0)" />
	</g>
	<g id="span.qodef-m-line" customFrame="url(#clipPath_5)">
		<rect id="span.qodef-m-line" width="25.000000" height="5.000000" x="0.000000" y="20.000000" />
		<rect id="span.qodef-m-dot" width="5.000000" height="5.000000" x="0.000000" y="20.000000" rx="2.500000" fill="rgb(0,0,0)" />
		<rect id="span.qodef-m-dot" width="5.000000" height="5.000000" x="10.000000" y="20.000000" rx="2.500000" fill="rgb(0,0,0)" />
		<rect id="span.qodef-m-dot" width="5.000000" height="5.000000" x="20.000000" y="20.000000" rx="2.500000" fill="rgb(0,0,0)" />
	</g>
</svg>
