<svg viewBox="0 0 21.2002 21" xmlns="http://www.w3.org/2000/svg" xmlns:xlink="http://www.w3.org/1999/xlink" width="21.200195" height="21.000000" fill="none" customFrame="#000000">
	<path id="" d="M20.6719 10.5C20.6719 4.88086 16.1191 0.328125 10.5 0.328125C4.88086 0.328125 0.328125 4.88086 0.328125 10.5C0.328125 15.5859 4.01953 19.8105 8.90039 20.5488L8.90039 13.4531L6.31641 13.4531L6.31641 10.5L8.90039 10.5L8.90039 8.28516C8.90039 5.74219 10.418 4.30664 12.7148 4.30664C13.8633 4.30664 15.0117 4.51172 15.0117 4.51172L15.0117 7.01367L13.7402 7.01367C12.4688 7.01367 12.0586 7.79297 12.0586 8.61328L12.0586 10.5L14.8887 10.5L14.4375 13.4531L12.0586 13.4531L12.0586 20.5488C16.9395 19.8105 20.6719 15.5859 20.6719 10.5Z" fill="rgb(150,150,150)" fill-rule="nonzero" />
</svg>
