<svg viewBox="0 0 18.5957 21" xmlns="http://www.w3.org/2000/svg" xmlns:xlink="http://www.w3.org/1999/xlink" width="18.595703" height="21.000000" fill="none" customFrame="#000000">
	<path id="" d="M9.20801 5.7832C6.58301 5.7832 4.49121 7.91602 4.49121 10.5C4.49121 13.125 6.58301 15.2168 9.20801 15.2168C11.792 15.2168 13.9248 13.125 13.9248 10.5C13.9248 7.91602 11.792 5.7832 9.20801 5.7832ZM9.20801 13.5762C7.52637 13.5762 6.13184 12.2227 6.13184 10.5C6.13184 8.81836 7.48535 7.46484 9.20801 7.46484C10.8896 7.46484 12.2432 8.81836 12.2432 10.5C12.2432 12.2227 10.8896 13.5762 9.20801 13.5762ZM15.1963 5.61914C15.1963 5.00391 14.7041 4.51172 14.0889 4.51172C13.4736 4.51172 12.9814 5.00391 12.9814 5.61914C12.9814 6.23438 13.4736 6.72656 14.0889 6.72656C14.7041 6.72656 15.1963 6.23438 15.1963 5.61914ZM18.3135 6.72656C18.2314 5.25 17.9033 3.9375 16.8369 2.87109C15.7705 1.80469 14.458 1.47656 12.9814 1.39453C11.4639 1.3125 6.91113 1.3125 5.39355 1.39453C3.91699 1.47656 2.64551 1.80469 1.53809 2.87109C0.47168 3.9375 0.143555 5.25 0.0615234 6.72656C-0.0205078 8.24414 -0.0205078 12.7969 0.0615234 14.3145C0.143555 15.791 0.47168 17.0625 1.53809 18.1699C2.64551 19.2363 3.91699 19.5645 5.39355 19.6465C6.91113 19.7285 11.4639 19.7285 12.9814 19.6465C14.458 19.5645 15.7705 19.2363 16.8369 18.1699C17.9033 17.0625 18.2314 15.791 18.3135 14.3145C18.3955 12.7969 18.3955 8.24414 18.3135 6.72656ZM16.3447 15.9141C16.0576 16.7344 15.4014 17.3496 14.6221 17.6777C13.3916 18.1699 10.5205 18.0469 9.20801 18.0469C7.85449 18.0469 4.9834 18.1699 3.79395 17.6777C2.97363 17.3496 2.3584 16.7344 2.03027 15.9141C1.53809 14.7246 1.66113 11.8535 1.66113 10.5C1.66113 9.1875 1.53809 6.31641 2.03027 5.08594C2.3584 4.30664 2.97363 3.69141 3.79395 3.36328C4.9834 2.87109 7.85449 2.99414 9.20801 2.99414C10.5205 2.99414 13.3916 2.87109 14.6221 3.36328C15.4014 3.65039 16.0166 4.30664 16.3447 5.08594C16.8369 6.31641 16.7139 9.1875 16.7139 10.5C16.7139 11.8535 16.8369 14.7246 16.3447 15.9141Z" fill="rgb(150,150,150)" fill-rule="nonzero" />
</svg>
