<svg viewBox="0 0 21.2002 21" xmlns="http://www.w3.org/2000/svg" xmlns:xlink="http://www.w3.org/1999/xlink" width="21.200195" height="21.000000" fill="none" customFrame="#000000">
	<path id="" d="M18.8262 6.23438C19.6465 5.61914 20.3848 4.88086 20.959 4.01953C20.2207 4.34766 19.3594 4.59375 18.498 4.67578C19.4004 4.14258 20.0566 3.32227 20.3848 2.29688C19.5645 2.78906 18.6211 3.1582 17.6777 3.36328C16.8574 2.50195 15.75 2.00977 14.5195 2.00977C12.1406 2.00977 10.2129 3.9375 10.2129 6.31641C10.2129 6.64453 10.2539 6.97266 10.3359 7.30078C6.76758 7.0957 3.56836 5.37305 1.43555 2.78906C1.06641 3.4043 0.861328 4.14258 0.861328 4.96289C0.861328 6.43945 1.59961 7.75195 2.78906 8.53125C2.0918 8.49023 1.39453 8.32617 0.820312 7.99805L0.820312 8.03906C0.820312 10.1309 2.29688 11.8535 4.26562 12.2637C3.9375 12.3457 3.52734 12.4277 3.1582 12.4277C2.87109 12.4277 2.625 12.3867 2.33789 12.3457C2.87109 14.0684 4.4707 15.2988 6.35742 15.3398C4.88086 16.4883 3.03516 17.1855 1.02539 17.1855C0.65625 17.1855 0.328125 17.1445 0 17.1035C1.88672 18.334 4.14258 19.0312 6.60352 19.0312C14.5195 19.0312 18.8262 12.5098 18.8262 6.80859C18.8262 6.60352 18.8262 6.43945 18.8262 6.23438Z" fill="rgb(150,150,150)" fill-rule="nonzero" />
</svg>
