<svg viewBox="0 0 23.8252 21" xmlns="http://www.w3.org/2000/svg" xmlns:xlink="http://www.w3.org/1999/xlink" width="23.825195" height="21.000000" fill="none" customFrame="#000000">
	<path id="" d="M22.5176 5.12695C22.2715 4.14258 21.4922 3.36328 20.5488 3.11719C18.7852 2.625 11.8125 2.625 11.8125 2.625C11.8125 2.625 4.79883 2.625 3.03516 3.11719C2.0918 3.36328 1.3125 4.14258 1.06641 5.12695C0.574219 6.84961 0.574219 10.541 0.574219 10.541C0.574219 10.541 0.574219 14.1914 1.06641 15.9551C1.3125 16.9395 2.0918 17.6777 3.03516 17.9238C4.79883 18.375 11.8125 18.375 11.8125 18.375C11.8125 18.375 18.7852 18.375 20.5488 17.9238C21.4922 17.6777 22.2715 16.9395 22.5176 15.9551C23.0098 14.1914 23.0098 10.541 23.0098 10.541C23.0098 10.541 23.0098 6.84961 22.5176 5.12695ZM9.51562 13.8633L9.51562 7.21875L15.3398 10.541L9.51562 13.8633Z" fill="rgb(150,150,150)" fill-rule="nonzero" />
</svg>
