<svg viewBox="0 0 22 22" xmlns="http://www.w3.org/2000/svg" xmlns:xlink="http://www.w3.org/1999/xlink" width="22.000000" height="22.000000" fill="none" clip-path="url(#clipPath_4)" customFrame="url(#clipPath_4)">
	<defs>
		<clipPath id="clipPath_4">
			<rect width="22.000000" height="22.000000" x="0.000000" y="0.000000" rx="11.000000" fill="rgb(255,255,255)" />
		</clipPath>
		<clipPath id="clipPath_5">
			<rect width="11.000000" height="11.000000" x="0.000000" y="0.000000" fill="rgb(255,255,255)" transform="matrix(1,0,0,-1,5.5,15.5)" />
		</clipPath>
	</defs>
	<rect id="span.qodef-icon-holder" width="22.000000" height="22.000000" x="0.000000" y="0.000000" rx="11.000000" fill="rgb(142,139,140)" />
	<g id="Frame" clip-path="url(#clipPath_5)" customFrame="url(#clipPath_5)">
		<rect id="Frame" width="11.000000" height="11.000000" x="0.000000" y="0.000000" transform="matrix(1,0,0,-1,5.5,15.5)" />
		<g id="Group">
			<path id="Vector" d="M0.0218714 7.54776L0.0218714 0L2.05848 0L2.05848 7.54776L0.0218714 7.54776ZM6.23505 7.54712C6.94737 7.54712 9.01893 7.25828 9.01893 4.68519L9.01893 0L6.8616 0L6.8616 4.75166C6.8616 5.30873 6.54597 5.69791 5.86259 5.69791C4.72828 5.69791 4.80312 4.75166 4.80312 4.75166L4.80312 0L2.75557 0L2.75557 7.54776L4.80312 7.54776L4.80312 6.9508C5.11747 7.1916 5.48928 7.54712 6.23505 7.54712ZM0 9.26316C0 9.83138 0.461014 10.2924 1.02924 10.2924C1.59747 10.2924 2.05848 9.83138 2.05848 9.26316C2.05848 8.69493 1.59747 8.23392 1.02924 8.23392C0.461014 8.23392 0 8.69493 0 9.26316Z" fill="rgb(255,255,255)" fill-rule="nonzero" transform="matrix(1,0,0,-1,5.51074,15.4785)" />
		</g>
	</g>
</svg>
