<svg viewBox="0 0 22 22" xmlns="http://www.w3.org/2000/svg" xmlns:xlink="http://www.w3.org/1999/xlink" width="22.000000" height="22.000000" fill="none" clip-path="url(#clipPath_2)" customFrame="url(#clipPath_2)">
	<defs>
		<clipPath id="clipPath_2">
			<rect width="22.000000" height="22.000000" x="0.000000" y="0.000000" rx="11.000000" fill="rgb(255,255,255)" />
		</clipPath>
		<clipPath id="clipPath_3">
			<rect width="11.000000" height="11.000000" x="0.000000" y="0.000000" fill="rgb(255,255,255)" transform="matrix(1,0,0,-1,5.5,16.5)" />
		</clipPath>
	</defs>
	<rect id="span.qodef-icon-holder" width="22.000000" height="22.000000" x="0.000000" y="0.000000" rx="11.000000" fill="rgb(142,139,140)" />
	<g id="Frame" clip-path="url(#clipPath_3)" customFrame="url(#clipPath_3)">
		<rect id="Frame" width="11.000000" height="11.000000" x="0.000000" y="0.000000" transform="matrix(1,0,0,-1,5.5,16.5)" />
		<g id="Group">
			<path id="Vector" d="M10.6766 8.7554C10.5085 8.23049 10.1517 7.78856 9.68643 7.51002C10.1421 7.56427 10.5757 7.68563 10.9798 7.86468C10.6779 7.41331 10.2958 7.01663 9.85454 6.70035C9.85947 6.60365 9.8614 6.50608 9.8614 6.40873C9.8614 3.43209 7.59579 0 3.45267 0C2.18049 0 0.996862 0.373314 0 1.01209C0.176257 0.991501 0.355302 0.980565 0.537135 0.980565C1.59253 0.980565 2.56409 1.3408 3.33474 1.94462C2.34945 1.96306 1.5177 2.61427 1.23101 3.50906C1.36889 3.4829 1.50955 3.46854 1.65493 3.46854C1.86078 3.46854 2.05977 3.49598 2.24846 3.54745C1.21858 3.75458 0.44193 4.66524 0.44193 5.75624L0.44193 5.78433C0.74577 5.61557 1.09292 5.51394 1.46216 5.50172C0.858343 5.90505 0.46037 6.59464 0.46037 7.37622C0.46037 7.7892 0.570799 8.17624 0.765068 8.50838C1.876 7.14571 3.53565 6.24877 5.40758 6.15485C5.3692 6.31953 5.34926 6.49172 5.34926 6.66819C5.34926 7.91142 6.35791 8.92008 7.60201 8.92008C8.24957 8.92008 8.83495 8.6469 9.246 8.20862C9.75912 8.31004 10.2416 8.49745 10.6766 8.7554Z" fill="rgb(255,255,255)" fill-rule="nonzero" transform="matrix(1,0,0,-1,5.51074,15.4492)" />
		</g>
	</g>
</svg>
